<?xml version="1.0"?>
<svg xmlns="http://www.w3.org/2000/svg" id="Layer_3" enable-background="new 0 0 64 64" height="512px" viewBox="0 0 64 64" width="512px" class=""><g><path d="m51.535 8.121c-.723-.723-1.684-1.121-2.706-1.121-2.112 0-3.829 1.718-3.829 3.828 0 1.023.398 1.984 1.122 2.707l4.343 4.344c.723.723 1.684 1.121 2.706 1.121 2.112 0 3.829-1.718 3.829-3.828 0-1.023-.398-1.984-1.122-2.707zm1.636 8.879c-.488 0-.948-.19-1.293-.535l-4.343-4.344c-.34-.341-.535-.811-.535-1.293 0-1.008.82-1.828 1.829-1.828.488 0 .948.19 1.293.535l4.343 4.344c.34.341.535.811.535 1.293 0 1.008-.82 1.828-1.829 1.828z" data-original="#000000" class="active-path" data-old_color="#000000" fill="#FFD162"/><path d="m60.429 11.015-7.443-7.443c-1.659-1.659-3.863-2.572-6.208-2.572-4.84 0-8.778 3.938-8.778 8.778v9.808l-6.909 6.909c-1.38-.811-2.846-1.439-4.38-1.855l-.936-3.64h-7.551l-.936 3.641c-1.477.4-2.895.988-4.229 1.755l-3.239-1.916-5.339 5.341 1.915 3.238c-.766 1.333-1.354 2.75-1.755 4.229l-3.641.937v7.551l3.641.936c.4 1.479.989 2.896 1.755 4.229l-1.915 3.238 5.339 5.341 3.239-1.915c1.335.767 2.753 1.354 4.229 1.755l.937 3.64h7.551l.936-3.641c1.477-.4 2.895-.988 4.229-1.755l3.239 1.915 5.339-5.341-1.915-3.238c.766-1.333 1.354-2.75 1.755-4.229l3.641-.936v-7.551l-3.641-.936c-.416-1.536-1.044-3.002-1.854-4.379l6.909-6.909h9.808c4.84 0 8.778-3.938 8.778-8.778 0-2.345-.913-4.549-2.571-6.207zm-26.429 30.985c0 6.617-5.383 12-12 12s-12-5.383-12-12 5.383-12 12-12c1.594 0 3.172.332 4.638.948l-11.64 11.64.025 6.389 6.389.025.588-.588 3 3 2.707-2.707-1.414-1.414-1.293 1.293-1.586-1.586 4.586-4.586 1.586 1.586-1.293 1.293 1.414 1.414 2.707-2.707-3-3 3.638-3.638c.617 1.466.948 3.044.948 4.638zm.793-14.207-17.783 17.783-.009-2.164 18.353-18.352c.363.913.177 1.996-.561 2.733zm-14.206 19.205-2.163-.008 17.782-17.783c1.525-1.525 1.727-3.871.623-5.623l2.17-2.17 3.587 3.586zm16.975-8.66.138.589 3.3.849v4.449l-3.3.849-.138.589c-.394 1.679-1.057 3.276-1.97 4.748l-.319.515 1.736 2.938-3.146 3.146-2.937-1.735-.515.319c-1.476.914-3.073 1.577-4.749 1.97l-.59.138-.847 3.298h-4.449l-.848-3.301-.59-.138c-1.676-.393-3.273-1.056-4.749-1.97l-.515-.319-2.937 1.735-3.146-3.146 1.736-2.938-.318-.513c-.914-1.472-1.576-3.069-1.97-4.748l-.139-.589-3.3-.848v-4.449l3.3-.849.138-.589c.394-1.679 1.057-3.276 1.97-4.748l.319-.515-1.736-2.938 3.146-3.146 2.937 1.735.515-.319c1.476-.914 3.073-1.577 4.749-1.97l.59-.138.847-3.299h4.449l.848 3.301.59.138c1.383.324 2.709.843 3.961 1.524l-1.47 1.47c-1.912-.937-4.022-1.433-6.153-1.433-7.72 0-14 6.28-14 14s6.28 14 14 14 14-6.28 14-14c0-2.131-.495-4.241-1.433-6.153l1.47-1.47c.681 1.25 1.199 2.575 1.525 3.961zm16.66-14.338h-9.808l-4.414-4.414v-9.808c0-3.737 3.041-6.778 6.778-6.778 1.811 0 3.513.705 4.793 1.985l7.443 7.443c1.28 1.28 1.985 2.982 1.985 4.793.001 3.738-3.04 6.779-6.777 6.779z" data-original="#000000" class="active-path" data-old_color="#000000" fill="#FFD162"/><circle cx="43" cy="18" r="1" data-original="#000000" class="active-path" data-old_color="#000000" fill="#FFD162"/><circle cx="46" cy="21" r="1" data-original="#000000" class="active-path" data-old_color="#000000" fill="#FFD162"/><path d="m22 34v-2c-3.344 0-6.453 1.661-8.315 4.443l1.662 1.113c1.49-2.227 3.978-3.556 6.653-3.556z" data-original="#000000" class="active-path" data-old_color="#000000" fill="#FFD162"/><path d="m12.248 39.778 1.95.443c.14-.616.353-1.214.633-1.776l-1.791-.891c-.351.705-.617 1.454-.792 2.224z" data-original="#000000" class="active-path" data-old_color="#000000" fill="#FFD162"/></g> </svg>
